<?xml version="1.0" encoding="UTF-8" standalone="no"?>
<svg
   xmlns:dc="http://purl.org/dc/elements/1.1/"
   xmlns:cc="http://creativecommons.org/ns#"
   xmlns:rdf="http://www.w3.org/1999/02/22-rdf-syntax-ns#"
   xmlns:svg="http://www.w3.org/2000/svg"
   xmlns="http://www.w3.org/2000/svg"
   xmlns:sodipodi="http://sodipodi.sourceforge.net/DTD/sodipodi-0.dtd"
   xmlns:inkscape="http://www.inkscape.org/namespaces/inkscape"
   version="1.1"
   id="レイヤー_1"
   x="0px"
   y="0px"
   width="76px"
   height="76px"
   viewBox="0 0 76 76"
   enable-background="new 0 0 76 76"
   xml:space="preserve"
   sodipodi:docname="6.svg"
   inkscape:version="1.0.1 (3bc2e813f5, 2020-09-07)"><metadata
   id="metadata371"><rdf:RDF><cc:Work
       rdf:about=""><dc:format>image/svg+xml</dc:format><dc:type
         rdf:resource="http://purl.org/dc/dcmitype/StillImage" /></cc:Work></rdf:RDF></metadata><defs
   id="defs369" /><sodipodi:namedview
   pagecolor="#ffffff"
   bordercolor="#666666"
   borderopacity="1"
   objecttolerance="10"
   gridtolerance="10"
   guidetolerance="10"
   inkscape:pageopacity="0"
   inkscape:pageshadow="2"
   inkscape:window-width="2560"
   inkscape:window-height="1371"
   id="namedview367"
   showgrid="false"
   inkscape:zoom="13.171053"
   inkscape:cx="22.777223"
   inkscape:cy="38"
   inkscape:window-x="0"
   inkscape:window-y="0"
   inkscape:window-maximized="1"
   inkscape:current-layer="レイヤー_1"
   inkscape:document-rotation="0" />

<path
   fill="#008284"
   d="M66.856,23.967v-3.565c0-6.296-5.109-11.4-11.399-11.4H20.544c-6.29,0-11.4,5.104-11.4,11.4v34.197  c0,6.29,5.11,11.4,11.4,11.4h34.913c6.29,0,11.399-5.11,11.399-11.4V43.911c0-4.984-4.921-12.11-11.405-12.11H27.669  c-1.569,0-2.85-1.28-2.85-2.85v-6.412c0-1.575,1.28-2.851,2.85-2.851h20.663c1.569,0,2.85,1.275,2.85,2.851v1.005L66.856,23.967z   M25.531,47.474c0-1.569,1.28-2.85,2.851-2.85h20.662c1.57,0,2.851,1.28,2.851,2.85v6.412c0,1.57-1.28,2.851-2.851,2.851H28.382  c-1.57,0-2.851-1.28-2.851-2.851V47.474z"
   id="path364"
   style="stroke:#fffff6;stroke-opacity:1;stroke-width:3;stroke-miterlimit:4;stroke-dasharray:none" />
</svg>
