<?xml version="1.0" encoding="UTF-8" standalone="no"?>
<svg
   xmlns:dc="http://purl.org/dc/elements/1.1/"
   xmlns:cc="http://creativecommons.org/ns#"
   xmlns:rdf="http://www.w3.org/1999/02/22-rdf-syntax-ns#"
   xmlns:svg="http://www.w3.org/2000/svg"
   xmlns="http://www.w3.org/2000/svg"
   xmlns:sodipodi="http://sodipodi.sourceforge.net/DTD/sodipodi-0.dtd"
   xmlns:inkscape="http://www.inkscape.org/namespaces/inkscape"
   version="1.1"
   id="レイヤー_1"
   x="0px"
   y="0px"
   width="76px"
   height="76px"
   viewBox="0 0 76 76"
   enable-background="new 0 0 76 76"
   xml:space="preserve"
   sodipodi:docname="8.svg"
   inkscape:version="1.0.1 (3bc2e813f5, 2020-09-07)"><metadata
   id="metadata475"><rdf:RDF><cc:Work
       rdf:about=""><dc:format>image/svg+xml</dc:format><dc:type
         rdf:resource="http://purl.org/dc/dcmitype/StillImage" /></cc:Work></rdf:RDF></metadata><defs
   id="defs473" /><sodipodi:namedview
   pagecolor="#ffffff"
   bordercolor="#666666"
   borderopacity="1"
   objecttolerance="10"
   gridtolerance="10"
   guidetolerance="10"
   inkscape:pageopacity="0"
   inkscape:pageshadow="2"
   inkscape:window-width="2560"
   inkscape:window-height="1371"
   id="namedview471"
   showgrid="false"
   inkscape:zoom="13.171053"
   inkscape:cx="22.777223"
   inkscape:cy="38"
   inkscape:window-x="0"
   inkscape:window-y="0"
   inkscape:window-maximized="1"
   inkscape:current-layer="レイヤー_1"
   inkscape:document-rotation="0" />

<path
   fill="#757575"
   d="M66.856,31.087c0,2.377-0.729,4.581-1.977,6.413c1.247,1.826,1.977,4.036,1.977,6.412V54.6  c0,6.29-5.104,11.4-11.4,11.4H20.544c-6.29,0-11.4-5.11-11.4-11.4V43.912c0-2.376,0.729-4.586,1.982-6.412  c-1.252-1.832-1.982-4.036-1.982-6.413V20.4c0-6.295,5.11-11.4,11.4-11.4h34.912c6.296,0,11.4,5.104,11.4,11.4V31.087z   M51.182,22.538c0-1.575-1.275-2.85-2.851-2.85H27.669c-1.57,0-2.851,1.275-2.851,2.85v6.413c0,1.569,1.28,2.85,2.851,2.85h20.662  c1.575,0,2.851-1.28,2.851-2.85V22.538z M51.182,46.05c0-1.575-1.275-2.85-2.851-2.85H27.669c-1.57,0-2.851,1.274-2.851,2.85v6.413  c0,1.569,1.28,2.85,2.851,2.85h20.662c1.575,0,2.851-1.28,2.851-2.85V46.05z"
   id="path468"
   style="stroke:#ffffff;stroke-opacity:1;stroke-width:3;stroke-miterlimit:4;stroke-dasharray:none" />
</svg>
